<?xml version="1.0" encoding="UTF-8"?>
<svg width="122.157108px" height="114.582467px" viewBox="0 0 122.157108 114.582467" version="1.1" xmlns="http://www.w3.org/2000/svg" xmlns:xlink="http://www.w3.org/1999/xlink">
    <title>icon-wallet-connect-light</title>
    <defs>
        <linearGradient x1="97.4446084%" y1="23.8932292%" x2="0.719532072%" y2="83.7890625%" id="linearGradient-1">
            <stop stop-color="#004BFF" offset="0%"></stop>
            <stop stop-color="#3772FF" offset="42.1996382%"></stop>
            <stop stop-color="#0004F7" offset="100%"></stop>
        </linearGradient>
    </defs>
    <g id="icon-wallet-connect-light" stroke="none" stroke-width="1" fill="none" fill-rule="evenodd">
        <path d="M47.6459409,20.8339686 C50.8261827,20.8339686 53.4042472,18.2372123 53.4042472,15.0339127 C53.4042472,11.830613 50.8261827,9.23385676 47.6459409,9.23385676 C44.4656991,9.23385676 41.8876346,11.830613 41.8876346,15.0339127 C41.8876346,18.2372123 44.4656991,20.8339686 47.6459409,20.8339686" id="Fill-1" fill="#23262F" transform="translate(47.645941, 15.033913) rotate(-30.000000) translate(-47.645941, -15.033913) "></path>
        <path d="M65.4683073,53.2572847 C62.5401109,53.2572847 60.1664143,55.6484414 60.1664143,58.5978683 C60.1664143,61.5472951 62.5401109,63.9384519 65.4683073,63.9384519 C68.3967521,63.9384519 70.7704486,61.5472951 70.7704486,58.5978683 C70.7704486,55.6484414 68.3967521,53.2572847 65.4683073,53.2572847 Z" id="Fill-3" fill="url(#linearGradient-1)" transform="translate(65.468431, 58.597868) rotate(-30.000000) translate(-65.468431, -58.597868) "></path>
        <path d="M23.8117349,73.5921446 C23.8117349,76.5415715 26.1856798,78.9324781 29.1138762,78.9324781 C32.0420727,78.9324781 34.4160175,76.5415715 34.4160175,73.5921446 C34.4160175,70.6424676 32.0420727,68.251561 29.1138762,68.251561 C26.1856798,68.251561 23.8117349,70.6424676 23.8117349,73.5921446 Z" id="Fill-5" fill="#23262F" transform="translate(29.113876, 73.592020) rotate(-30.000000) translate(-29.113876, -73.592020) "></path>
        <path d="M78.7537518,99.7489455 C78.7537518,102.530327 80.9923913,104.785024 83.7537518,104.785024 C86.5151123,104.785024 88.7537518,102.530327 88.7537518,99.7489455 C88.7537518,96.9675642 86.5151123,94.7126938 83.7537518,94.7126938 C80.9923913,94.7126938 78.7537518,96.9675642 78.7537518,99.7489455 Z" id="Fill-7" fill="#23262F" transform="translate(83.753752, 99.748859) rotate(-30.000000) translate(-83.753752, -99.748859) "></path>
        <path d="M54.5211261,76.3198752 C52.2887239,72.4384975 49.6237473,68.9227967 46.5609611,65.7962842 C45.9883338,66.9223289 45.1328694,67.8767907 44.0854531,68.5631227 C46.8666438,71.4285089 49.2977024,74.6363108 51.3351729,78.1787745 C56.2139276,86.6613781 58.4180212,96.2940382 57.7098108,106.035501 L57.6251335,107.195812 L65.4047694,111.714748 C65.516762,110.403364 65.9038938,109.170517 66.5090511,108.074987 L61.4537404,105.138567 C61.9642876,95.0501864 59.5771817,85.1111282 54.5211261,76.3198752" id="Fill-9" fill="#23262F" transform="translate(55.297252, 88.755516) rotate(-30.000000) translate(-55.297252, -88.755516) "></path>
        <path d="M38.3904803,20.3539649 L42.1659466,22.5457753 C42.5081323,21.3211828 43.1435847,20.2211507 43.9943311,19.3269681 L38.3852655,16.0703927 L17.3696453,28.2682937 L21.0509981,30.4055776 L38.3904803,20.3539649 Z" id="Fill-11" fill="#23262F" transform="translate(30.681988, 23.237985) rotate(-30.000000) translate(-30.681988, -23.237985) "></path>
        <path d="M77.5976325,17.1177989 C77.2457623,18.3388896 76.601867,19.4344196 75.7439193,20.3220991 L98.5290721,33.5499984 L77.602599,45.6185868 C77.5730488,45.6353449 77.5434986,45.6523531 77.5144451,45.6693614 C66.0579262,52.2653023 51.8634244,52.2040227 40.462281,45.5075331 L40.4309926,45.5615592 C40.4255295,45.5583077 40.4200665,45.554806 40.4146034,45.5515544 L19.4225737,33.299127 L30.7169393,26.7454565 C39.1275578,32.2473682 48.86247,35.1490219 58.9492526,35.1490219 C66.3223876,35.1490219 73.4310613,33.6235339 80.0972276,30.6210814 L76.0798971,28.2847012 C70.6265285,30.3782139 64.8806383,31.4404778 58.9492526,31.4404778 C49.2168235,31.4404778 39.8367614,28.5330713 31.8232075,23.0326604 L30.8823208,22.3773433 L14.0578556,32.14782 L14.0578556,84.2830416 L35.0712409,96.5314671 L35.0712409,92.2516466 L17.6071018,82.1395046 L17.6071018,36.5872177 L38.5156958,48.7603567 C49.9496176,55.4340853 57.0548148,67.848341 57.01707,81.1587802 L56.9837951,97.4489109 C57.5673485,97.3298533 60.0679368,97.3358562 60.6738391,97.4646685 L60.7230066,81.1347686 C60.7230066,81.123263 60.7247448,81.0657352 60.7249931,81.0657352 L60.7900531,81.0657352 C60.7900531,76.8099263 61.5290552,72.6246516 62.9069862,68.7017538 C61.6489941,68.5139129 60.4975315,68.0156719 59.5417455,67.2558043 C59.3281898,67.8503419 59.1245669,68.4573856 58.9380781,69.0616779 C57.140982,63.1605731 54.0421893,57.7311966 49.8865442,53.1950021 C55.8405271,54.5719182 62.0450654,54.5879259 68.011216,53.2517795 C67.5086151,53.7977937 67.0221551,54.3588151 66.5505943,54.9308418 C67.7204326,55.3923151 68.7415269,56.1526829 69.5175287,57.1229023 C72.255015,53.854321 75.5636386,51.0354573 79.3510243,48.8383945 C79.3564873,48.8351429 79.361702,48.8549025 79.3671651,48.8514008 L100.374839,36.7477954 L100.372107,49.7330773 C91.4397674,54.3252989 84.0825249,61.3747092 79.0455899,70.1769675 C75.3637405,76.6113302 73.1258753,83.5782006 72.3796719,90.8949903 L76.3955125,88.5563589 C77.3180236,82.752051 79.2735482,77.2076187 82.2355163,72.0313646 C87.0956469,63.5382559 94.280555,56.8044982 103.013245,52.558194 L104.053709,52.0524493 L104.05793,32.4794805 L77.5976325,17.1177989 Z" id="Fill-13" fill="#23262F" transform="translate(59.057893, 57.291234) rotate(-30.000000) translate(-59.057893, -57.291234) "></path>
        <path d="M109.612954,65.9073493 L76.4298734,85.2697163 C77.036024,86.3649962 77.4243974,87.5978426 77.5373832,88.909227 L113.300019,68.041882 L113.302502,43.6108129 L109.625619,45.7563508 L109.612954,65.9073493 Z" id="Fill-16" fill="#23262F" transform="translate(94.866188, 66.260020) rotate(-30.000000) translate(-94.866188, -66.260020) "></path>
    </g>
</svg>