<?xml version="1.0" encoding="UTF-8"?>
<svg width="21px" height="21px" viewBox="0 0 21 21" version="1.1" xmlns="http://www.w3.org/2000/svg" xmlns:xlink="http://www.w3.org/1999/xlink">
    <title>icon-setting-white</title>
    <g id="Swap" stroke="none" stroke-width="1" fill="none" fill-rule="evenodd">
        <g id="1.1-Swap---Mobile" transform="translate(-353.000000, -576.000000)" fill="#FFFFFF" fill-rule="nonzero">
            <g id="setting" transform="translate(353.000000, 576.000000)">
                <path d="M10.5,15 C12.9852814,15 15,12.9852814 15,10.5 C15,8.01471863 12.9852814,6 10.5,6 C9.38475329,6 8.36426293,6.40570015 7.57806204,7.07756734 C6.6122466,7.90292852 6,9.12996533 6,10.5 C6,12.9852814 8.01471863,15 10.5,15 L10.5,15 Z M10.5,0 C11.3284271,0 12,0.678545475 12,1.50083274 L12.0005978,3.15014855 C12.9579247,3.34455716 13.8490251,3.72131287 14.6360645,4.24258134 L15.802712,3.07596763 C16.3521917,2.52648797 17.2179154,2.48832433 17.8100227,2.97173854 L17.9246212,3.0753788 C18.5104076,3.66116524 18.5054773,4.61584308 17.9240324,5.19728797 L16.7574187,6.3639355 C17.2788693,7.15125003 17.6557062,8.04269822 17.8500552,9.00040605 L19.4991673,9 C20.2792962,9 20.9204045,9.58977194 20.9931296,10.3546371 L21,10.5 C21,11.3284271 20.3214545,12 19.4991673,12 L17.8498515,12.0005978 C17.6554428,12.9579247 17.2786871,13.8490251 16.7574187,14.6360645 L17.9240324,15.802712 C18.473512,16.3521917 18.5116757,17.2179154 18.0282615,17.8100227 L17.9246212,17.9246212 C17.3388348,18.5104076 16.3841569,18.5054773 15.802712,17.9240324 L14.6360645,16.7574187 C13.8490251,17.2786871 12.9579247,17.6554428 12.0005978,17.8498515 L12,19.4991673 C12,20.2792962 11.4102281,20.9204045 10.6453629,20.9931296 L10.5,21 C9.67157288,21 9,20.3214545 9,19.4991673 L9.00040605,17.8500552 C8.04269822,17.6557062 7.15125003,17.2788693 6.3639355,16.7574187 L5.19728797,17.9240324 C4.64780831,18.473512 3.78208459,18.5116757 3.18997727,18.0282615 L3.0753788,17.9246212 C2.48959236,17.3388348 2.49452273,16.3841569 3.07596763,15.802712 L4.24258134,14.6360645 C3.72131287,13.8490251 3.34455716,12.9579247 3.15014855,12.0005978 L1.50083274,12 C0.720703765,12 0.0795954854,11.4102281 0.00687039009,10.6453629 L9.18485099e-17,10.5 C1.42575041e-16,9.67157288 0.678545475,9 1.50083274,9 L3.15066014,9.00013034 C3.34323061,8.05350488 3.71590017,7.15995938 4.24259843,6.36401554 L3.07596763,5.19728797 C2.52648797,4.64780831 2.48832433,3.78208459 2.97173854,3.18997727 L3.0753788,3.0753788 C3.66116524,2.48959236 4.61584308,2.49452273 5.19728797,3.07596763 L6.36409718,4.24276377 C7.16279061,3.71408109 8.05649618,3.34247783 9.00051412,3.15053048 L9,1.50083274 C9,0.720703765 9.58977194,0.0795954854 10.3546371,0.00687039009 L10.5,0 Z"></path>
            </g>
        </g>
    </g>
</svg>