<?xml version="1.0" encoding="UTF-8"?>
<svg width="30px" height="32px" viewBox="0 0 30 32" version="1.1" xmlns="http://www.w3.org/2000/svg" xmlns:xlink="http://www.w3.org/1999/xlink">
    <title>icon-wallet-available-light</title>
    <g id="icon-wallet-available-light" stroke="none" stroke-width="1" fill="none" fill-rule="evenodd">
        <path d="M26.1706082,18.5700819 L26.1706082,16.0839854 C26.1706082,14.0244685 24.5329137,12.3552438 22.5122993,12.3552438 L5.43913631,12.3552438 L4.21996373,12.3552438 C3.54589817,12.3552438 3,11.7988356 3,11.1125987 L3,10.490873" id="Stroke-1" stroke="#141416" stroke-linejoin="round"></path>
        <path d="M26.1706082,24.7851619 L26.1706082,27.2712584 C26.1706082,29.3307753 24.5329137,31 22.5122993,31 L4.21996373,31 C3.54589817,31 3,30.4435918 3,29.7565485 L3,12.3554857" id="Stroke-3" stroke="#141416" stroke-linejoin="round"></path>
        <path d="M12.7562288,9.24790541 L22.5119829,9.24790541 C24.5325972,9.24790541 26.1702917,10.9171301 26.1702917,12.976647" id="Stroke-5" stroke="#141416" stroke-linejoin="round"></path>
        <path d="M3.00023735,12.9768083 L3.00023735,10.4907117 C3.00023735,9.80447492 3.54613552,9.24806668 4.21940992,9.24806668 L6.65854623,9.24806668" id="Stroke-7" stroke="#141416" stroke-linejoin="round"></path>
        <path d="M19.4634185,24.7850813 L26.7800363,24.7850813 C27.4541018,24.7850813 28,24.228673 28,23.5424362 L28,19.8128882 C28,19.1266514 27.4541018,18.5702432 26.7800363,18.5702432 L19.4634185,18.5702432 C18.7901441,18.5702432 18.2442459,19.1266514 18.2442459,19.8128882 L18.2442459,23.5424362 C18.2442459,24.228673 18.7901441,24.7850813 19.4634185,24.7850813 Z" id="Stroke-9" stroke="#141416" stroke-linejoin="round"></path>
        <line x1="26.1706082" y1="16.0842273" x2="26.1706082" y2="12.9764051" id="Stroke-11" stroke="#141416" stroke-linejoin="round"></line>
        <polygon id="Stroke-13" stroke="#141416" points="6.7996886 7.33789301 6.7996886 10.6094122 9.57981348 12.2455749 12.3591472 10.6094122 12.3591472 7.33789301 9.57981348 5.70173024"></polygon>
        <polygon id="Stroke-15" stroke="#141416" points="14.7076169 2.63616277 14.7076169 5.90768193 17.4877418 7.5438447 20.2670755 5.90768193 20.2670755 2.63616277 17.4877418 1"></polygon>
    </g>
</svg>