<?xml version="1.0" encoding="UTF-8"?>
<svg width="11px" height="11px" viewBox="0 0 11 11" version="1.1" xmlns="http://www.w3.org/2000/svg" xmlns:xlink="http://www.w3.org/1999/xlink">
    <title>icon-more-information-grey</title>
    <g id="Swap" stroke="none" stroke-width="1" fill="none" fill-rule="evenodd">
        <g id="1.-Swap---Desktop" transform="translate(-261.000000, -692.000000)" stroke="#777E90">
            <g id="Group" transform="translate(261.000000, 692.000000)">
                <circle id="Oval-Copy-2" cx="5.5" cy="5.5" r="5"></circle>
                <path d="M5.49609375,3.48828125 C5.62890625,3.48828125 5.74348958,3.44010417 5.83984375,3.34375 C5.93619792,3.24739583 5.984375,3.1328125 5.984375,3 C5.984375,2.86197917 5.9375,2.74609375 5.84375,2.65234375 C5.75,2.55859375 5.63411458,2.51171875 5.49609375,2.51171875 C5.36328125,2.51171875 5.25,2.55989583 5.15625,2.65625 C5.0625,2.75260417 5.015625,2.8671875 5.015625,3 C5.015625,3.1328125 5.0625,3.24739583 5.15625,3.34375 C5.25,3.44010417 5.36328125,3.48828125 5.49609375,3.48828125 Z M6.57421875,8.60546875 L6.57421875,7.88671875 L5.94921875,7.88671875 L5.94921875,4.5 L4.5,4.5 L4.5,5.22265625 L5.140625,5.22265625 L5.140625,7.88671875 L4.5,7.88671875 L4.5,8.60546875 L6.57421875,8.60546875 Z" id="i" stroke-width="0.25" fill="#777E90" fill-rule="nonzero"></path>
            </g>
        </g>
    </g>
</svg>