<?xml version="1.0" encoding="UTF-8"?>
<svg width="18px" height="18px" viewBox="0 0 18 18" version="1.1" xmlns="http://www.w3.org/2000/svg" xmlns:xlink="http://www.w3.org/1999/xlink">
    <title>icon-external-link</title>
    <g id="icon-external-link" stroke="none" stroke-width="1" fill="none" fill-rule="evenodd">
        <path d="M6.75,15 C8.821065,15 10.5,13.321065 10.5,11.25 C10.5,9.178935 8.821065,7.5 6.75,7.5 C4.678935,7.5 3,9.178935 3,11.25 C3,13.321065 4.678935,15 6.75,15 Z M6.75,16.5 C9.6495,16.5 12,14.1495 12,11.25 C12,8.3505075 9.6495,6 6.75,6 C3.8505075,6 1.5,8.3505075 1.5,11.25 C1.5,14.1495 3.8505075,16.5 6.75,16.5 Z" id="Shape" fill="#E6E8EC"></path>
        <path d="M11.2500056,3 C10.1394486,3 9.14241935,3.48179737 8.45469062,4.25017885 C8.17845013,4.55882594 7.70430078,4.5850909 7.39565573,4.30884377 C7.08701,4.03260414 7.06074413,3.55845477 7.33698987,3.24981518 C8.29722784,2.1769506 9.69505784,1.5 11.2500056,1.5 C14.1495108,1.5 16.5,3.85050438 16.5,6.74999303 C16.5,8.30493596 15.8230488,9.7027391 14.7501719,10.6629628 C14.4415538,10.9392625 13.9674105,10.9130125 13.6911625,10.6043129 C13.4149145,10.2956883 13.4411795,9.82153895 13.7498276,9.54531431 C14.5182115,8.85757273 14.9999973,7.86054655 14.9999973,6.74999303 C14.9999973,4.67893078 13.3210818,3 11.2500056,3 Z" id="Shape" fill="#E6E8EC"></path>
    </g>
</svg>