<?xml version="1.0" encoding="UTF-8"?>
<svg width="18px" height="18px" viewBox="0 0 18 18" version="1.1" xmlns="http://www.w3.org/2000/svg" xmlns:xlink="http://www.w3.org/1999/xlink">
    <title>icon-switch-currency</title>
    <defs>
        <polygon id="path-1" points="5 9.66666667 14 9.66666667 14 13 5 13"></polygon>
    </defs>
    <g id="icon-switch-currency" stroke="none" stroke-width="1" fill="none" fill-rule="evenodd">
        <circle id="Oval-Copy-12" stroke="#B1B5C3" cx="9" cy="9" r="7.5"></circle>
        <path d="M5,6.59037487 C5.37370748,6.24273845 5.74696634,5.89510203 6.12067382,5.54788095 C6.28173142,5.39794457 6.44323766,5.24842353 6.60519252,5.09931783 C6.74920225,4.96724091 6.90801671,4.96682557 7.05157781,5.09848715 C7.15565961,5.19401449 7.25929277,5.28995715 7.36247731,5.38631516 C7.51231921,5.52628346 7.51097332,5.6699898 7.35933691,5.81161945 C7.25839552,5.90590077 7.15655686,5.99976676 7.05561547,6.09446342 C7.05202644,6.09737077 7.05157781,6.10318548 7.04529701,6.11813758 L7.15027606,6.11813758 C8.77027332,6.11813758 10.3902706,6.11730691 12.0102678,6.11855292 C12.962706,6.11938359 13.7478058,6.69836229 13.9550721,7.55644693 C13.9851302,7.6822938 13.9972432,7.81395539 14,7.94312495 C14.0039726,8.1557771 13.8195863,8.32523428 13.5903372,8.33146432 C13.4907417,8.33395634 13.3911462,8.33395634 13.2915506,8.33146432 C13.0645447,8.32606495 12.8882337,8.16449916 12.8774666,7.95433903 C12.8514462,7.46548829 12.505105,7.16021617 11.9752748,7.16021617 C10.3638015,7.16021617 8.75277682,7.16021617 7.1413035,7.16021617 L7.03991347,7.16021617 C7.05965312,7.18305966 7.07131746,7.19967311 7.08567357,7.21337921 C7.18482045,7.30599918 7.28621048,7.39612714 7.38356285,7.48999313 C7.50289801,7.60504126 7.50514115,7.75414697 7.38670325,7.86836443 C7.27140574,7.98008987 7.15296783,8.0893233 7.03273542,8.19648005 C6.90891397,8.30654415 6.74606185,8.30779016 6.62448354,8.19606471 C6.09913965,7.71219801 5.57559028,7.22625463 5.05159227,6.74072658 C5.03364713,6.72411313 5.01704788,6.70583834 5,6.68797888 C5,6.65558266 5,6.6227711 5,6.59037487" id="Fill-1" fill="#B1B5C3"></path>
        <mask id="mask-2" fill="white">
            <use xlink:href="#path-1"></use>
        </mask>
        <g id="Clip-4"></g>
        <path d="M5,9.976934 C5.06008969,9.82740842 5.15470852,9.70072704 5.33587444,9.6799596 C5.48565022,9.6629303 5.64125561,9.6612689 5.79013453,9.6807903 C5.98609865,9.70654192 6.11524664,9.86395912 6.12421525,10.0479586 C6.14887892,10.530594 6.49775785,10.8396135 7.02017937,10.8396135 C8.63408072,10.8396135 10.2479821,10.8396135 11.861435,10.8396135 L11.9470852,10.8396135 C11.9524664,10.8325525 11.9578475,10.8254916 11.9636771,10.818846 C11.8609865,10.7283 11.7573991,10.6394153 11.6569507,10.5476233 C11.4784753,10.3843912 11.4798206,10.2535563 11.6578475,10.0886628 C11.7569507,9.99645539 11.8556054,9.90383261 11.9560538,9.81245587 C12.0892377,9.69158936 12.2515695,9.68951262 12.3834081,9.81120982 C12.9017937,10.2896916 13.4192825,10.7694195 13.9367713,11.2495627 C14.0219731,11.3288944 14.0210762,11.3932734 13.9340807,11.4738511 C13.4188341,11.9519176 12.9035874,12.4299841 12.3869955,12.9068045 C12.2515695,13.0318245 12.0901345,13.0305784 11.9533632,12.9059738 C11.844843,12.8071208 11.7372197,12.7070217 11.6300448,12.6069227 C11.4910314,12.4765031 11.4901345,12.3294696 11.6282511,12.1994655 C11.7331839,12.1010278 11.8390135,12.0034208 11.9439462,11.9053985 C11.9475336,11.9020757 11.9479821,11.8962608 11.9538117,11.8813083 C11.9165919,11.8813083 11.8829596,11.8813083 11.8488789,11.8813083 C10.2295964,11.8813083 8.60986547,11.8825543 6.99013453,11.8813083 C6.03901345,11.8804776 5.25515695,11.2989893 5.04484305,10.44254 C5.02825112,10.3744228 5.01479821,10.3058903 5,10.2373577 C5,10.1505498 5,10.0637419 5,9.976934" id="Fill-3" fill="#B1B5C3" mask="url(#mask-2)"></path>
    </g>
</svg>