<?xml version="1.0" encoding="UTF-8"?>
<svg width="20px" height="16px" viewBox="0 0 20 16" version="1.1" xmlns="http://www.w3.org/2000/svg" xmlns:xlink="http://www.w3.org/1999/xlink">
    <title>icon-slippage-blue</title>
    <g id="Swap" stroke="none" stroke-width="1" fill="none" fill-rule="evenodd">
        <g id="5.-Swap---Desktop---Token---Dropdown---Light-theme" transform="translate(-80.000000, -800.000000)" stroke="#0090FF">
            <g id="Group" transform="translate(80.000000, 798.000000)">
                <g id="Group-4" transform="translate(1.000000, 3.000000)">
                    <path d="M8.61156644,11.8928615 C8.61156644,11.8928615 4.46389745,17.2315353 0.0815805694,10.9133991 C0.0815805694,10.9133991 -0.224405324,10.1295373 0.34881496,10.2570624 C0.922161061,10.3845876 2.69906845,11.55766 4.0838056,10.3588437 C5.43897586,9.1853732 6.39077819,7.61433199 7.27514285,6.04076947 C7.93857362,4.86039852 8.44674673,3.22393597 9.60199446,2.45918299 C10.5247332,1.84822989 11.7542127,2.20333642 12.3985193,3.08751985 C13.4673311,4.55425847 12.1967095,6.38539266 12.1409728,7.97912566 C12.0578081,10.358711 14.8457774,11.1178906 16.6213008,10.3334979 C16.6220557,10.3332325 18.8803373,9.33559017 17.6148742,11.4538882 C16.663701,13.0462942 14.8817609,13.7253227 13.1550543,13.6210201 C12.313719,13.5701958 11.4736417,13.3431452 10.7178616,12.948494 C10.3474576,12.7550166 8.99115502,11.4042583 8.61156644,11.8928615 Z" id="Stroke-1"></path>
                    <path d="M8.54843649,11.8461538 C8.54843649,11.8461538 8.06013816,7.43314577 9.52941176,6.46153846" id="Stroke-3"></path>
                    <path d="M10.5882353,2.13467247 L11.3524887,0.403444028 C11.5137067,0.0381303686 11.8975655,-0.105346766 12.210142,0.0826846145 L12.2828899,0.12645994 C12.6089234,0.322747876 12.7740054,0.758008586 12.6794064,1.17223844 L12.209609,3.23076923" id="Stroke-5"></path>
                </g>
            </g>
        </g>
    </g>
</svg>